<?xml version="1.0" encoding="utf-8"?>
<!-- Generator: Adobe Illustrator 27.6.1, SVG Export Plug-In . SVG Version: 6.00 Build 0)  -->
<svg version="1.1" id="Layer_1" xmlns="http://www.w3.org/2000/svg" xmlns:xlink="http://www.w3.org/1999/xlink" x="0px" y="0px"
	 viewBox="0 0 400 400" style="enable-background:new 0 0 400 400;" xml:space="preserve">
<style type="text/css">
	.st0{fill:#000009;}
</style>
<g>
	<path class="st0" d="M158.7,198.7L88.5,46.2C40.9,80.7,10,136.7,10,200c0,44.2,15.1,84.8,40.4,117.1L158.7,198.7z"/>
	<path class="st0" d="M174.1,44.1l42,91.8L299,45.3l10.9-0.3c-31-22-69-35-109.9-35c-40.4,0-77.8,12.6-108.6,34.1H174.1z"/>
	<path class="st0" d="M230.2,354.1l-46.6-101.2l-94,101.7C120.7,376.9,158.8,390,200,390c41.5,0,79.9-13.3,111.1-35.9H230.2z"/>
	<path class="st0" d="M345.5,77.8L241.2,190.7l73.5,160.8C360.4,316.8,390,261.8,390,200C390,153.5,373.3,110.9,345.5,77.8z"/>
</g>
</svg>
