<?xml version="1.0" encoding="utf-8"?>
<!-- Generator: Adobe Illustrator 27.6.1, SVG Export Plug-In . SVG Version: 6.00 Build 0)  -->
<svg version="1.1" id="Layer_1" xmlns="http://www.w3.org/2000/svg" xmlns:xlink="http://www.w3.org/1999/xlink" x="0px"
	y="0px" viewBox="0 0 860 300" style="enable-background:new 0 0 860 300;" xml:space="preserve">
	<style type="text/css">
		.st0 {
			fill: #231F20;
		}
	</style>
	<path class="st0" d="M494.8,138c-2.8-1-7.1-2.5-12.6-3.9c-16.3-4.3-20-2.2-21.2-1.5c-2.7,1.7-5.5,5.2-5.6,9.1
	c-0.1,4.5,3.6,6.9,15.5,18.3c5.7,5.4,8.5,8.2,9.5,9.5c1.5,2.1,9.9,13.3,7.3,26.2c-3.3,16.8-21.1,24-25,24.6
	c-7.1,1.3-16.9,2.3-28.4,1.2c-11.8-1.1-21.4-3.9-28.2-6.6c0,0,2.8-12,5.3-23.7c1.5,0.9,3.1,1.8,4.6,2.8c2.8,1.1,28.6,11.2,37.5,4.5
	c2.2-1.6,3-3.8,3-3.8c1.4-3.3,0.2-6.6-0.2-7.7c-1.3-3.6-3.9-5.7-5.6-7.1c-3.3-2.7-7.8-6.8-13.3-12.9c-9.6-6.8-14.3-18.7-12-30.3
	c2.3-11.4,11.1-20.5,22.5-23.2c6.3-1.4,14.8-2.7,25-2.2c11,0.5,20,2.7,26.3,4.9C497.8,123.4,496.3,130.7,494.8,138z M645,185.9
	c-2.3,5-10.6,21-29.7,30.3c-15.2,7.4-29.2,6.5-35,5.8c-6.2-0.3-14.8-2-21.9-8c-13.8-11.7-17.1-35.5-6.4-58.4c2.3-6,9-20.9,24.8-32.3
	c18-13,36.7-13.5,42.9-13.4c5.9,0.4,18,2.3,26.7,11.4C660.4,135.7,659.7,159.2,645,185.9z M617.9,135.6c-0.7-0.6-2.7-2.5-5.8-3.4
	c-8.1-2.2-15.9,4.5-18.1,6.4c-5.6,4.8-7.8,10.2-10.6,16.8c-4.4,10.6-4.9,19.2-5,21.3c-0.3,6.9-0.8,17.3,5.3,21.5
	c2.1,1.5,4.7,2,5.7,2.2c0,0,5.2,1,10.6-1c5-1.8,9-5.8,13-12.8C621.6,171.6,628.5,145.7,617.9,135.6z M766.3,125.9
	c-1.2-13.9-17.3-15.3-17.3-15.3s-10.9-1-22,6.3c-8.1,5.4-20.8,20.1-27.1,27.7l6.6-32.1h-31.9L652.8,221h31.5l7.4-35.9
	c0,0,3.1-6.3,15.2-22.9s20.2-21.4,20.2-21.4s0.8-1.1,1.9-1.5s2.7-0.3,3.8,0.2c2.2,1,1.2,5.3,1.2,5.3l-2.3,11.2L718.6,221h31.5
	l13.3-65.1C763.4,155.9,767.4,139.8,766.3,125.9z M353,112.5l-44.4,72.6l-10.2-72.6h-32.1l16.1,108h31.5l64.8-108H353z M360.2,221
	h31.5l22.2-108.4H382L360.2,221z M390.5,70.2l-5.7,28.2h32l5.8-28.2H390.5z M496.1,221h31.5l22.2-108.4h-31.9L496.1,221z
	 M526.4,70.2l-5.7,28.2h32l5.8-28.2H526.4z M142.3,149.3l-37.5-81.6c-25.4,18.5-42,48.4-42,82.3c0,23.6,8.1,45.4,21.6,62.6
	L142.3,149.3z M150.5,66.6l22.4,49.1l44.3-48.4l5.9-0.2c-16.6-11.8-36.9-18.7-58.8-18.7c-21.6,0-41.6,6.7-58.1,18.2H150.5z
	 M180.5,232.4l-24.9-54.1l-50.3,54.4c16.6,11.9,37,18.9,59,18.9c22.2,0,42.7-7.1,59.4-19.2H180.5z M242.2,84.7L186.4,145l39.3,86
	c24.5-18.6,40.3-47.9,40.3-81C266,125.1,257,102.3,242.2,84.7z M225.7,231.6h540.9v-3.7H225.7V231.6z M778.2,77
	c1.1-0.2,2.9-0.3,4.8-0.3c2.3,0,4,0.3,5.1,1.1c0.9,0.7,1.5,1.7,1.5,3c0,1.9-1.4,3.1-2.8,3.6v0.1c1.1,0.4,1.7,1.4,2.1,2.7
	c0.5,1.6,1,3.5,1.3,4.1h-3.7c-0.3-0.4-0.6-1.6-1.1-3.4c-0.4-1.8-1.1-2.3-2.6-2.3h-1.1v5.7h-3.5V77z M781.8,83.3h1.4
	c1.8,0,2.8-0.8,2.8-2.1c0-1.3-1-2-2.6-2c-0.9,0-1.4,0.1-1.6,0.1V83.3z M783.6,98.1c-7.6,0-13.7-6.1-13.7-13.7s6.1-13.7,13.7-13.7
	s13.7,6.1,13.7,13.7S791.1,98.1,783.6,98.1z M783.6,73.7c-5.9,0-10.7,4.8-10.7,10.7s4.8,10.7,10.7,10.7s10.7-4.8,10.7-10.7
	S789.5,73.7,783.6,73.7z" />
</svg>